<svg width="1067" height="348" viewBox="0 0 1067 348" fill="none" xmlns="http://www.w3.org/2000/svg">
<ellipse cx="195.975" cy="207" rx="195.975" ry="141" fill="black"/>
<ellipse cx="195.975" cy="207" rx="147.106" ry="106" fill="white"/>
<ellipse cx="196.473" cy="93.5" rx="33.9091" ry="21.5" fill="black"/>
<ellipse cx="196.473" cy="207" rx="25.9305" ry="14" fill="black"/>
<path d="M196.473 214V241" stroke="black" stroke-width="6"/>
<path d="M225.894 227C216.254 239.5 190.888 257 166.553 227" stroke="black" stroke-width="6"/>
<ellipse rx="25.5003" ry="44.1876" transform="matrix(0.803495 -0.595312 0.593254 0.805016 112.527 71.7524)" fill="black"/>
<ellipse rx="25.5003" ry="44.1876" transform="matrix(0.803495 -0.595312 0.593254 0.805016 112.527 71.7524)" fill="black"/>
<ellipse rx="25.5003" ry="44.1876" transform="matrix(0.803495 -0.595312 0.593254 0.805016 112.527 71.7524)" fill="black"/>
<ellipse rx="25.5003" ry="44.1876" transform="matrix(0.803495 -0.595312 0.593254 0.805016 112.527 71.7524)" fill="black"/>
<ellipse rx="25.4814" ry="55.22" transform="matrix(0.960823 -0.277162 0.275795 0.961216 187.317 60.1409)" fill="black"/>
<ellipse rx="25.4998" ry="55.1803" transform="matrix(0.808246 -0.588845 0.586785 0.809743 264.422 71.6973)" fill="black"/>
<ellipse rx="60.991" ry="30.9813" transform="matrix(0.908842 -0.41714 0.415297 0.909686 91.2362 187.625)" fill="black"/>
<path d="M249.695 160.466C257.607 145.297 288.207 145.683 318.042 161.328C347.877 176.974 365.649 201.954 357.737 217.123C349.825 232.292 319.225 231.906 289.39 216.261C259.555 200.615 241.783 175.635 249.695 160.466Z" fill="black"/>
<path d="M72.8048 191C83.7754 194 106.215 194.6 108.21 173" stroke="white" stroke-width="6"/>
<path d="M317.15 191.441C306.025 194.514 283.269 195.129 281.246 173" stroke="white" stroke-width="6"/>
<path d="M506.87 274.75C499.404 274.75 492.462 273.7 486.045 271.6C479.745 269.383 474.262 266.292 469.595 262.325C464.929 258.358 461.37 253.75 458.92 248.5C457.987 246.633 457.929 244.942 458.745 243.425C459.679 241.792 461.195 240.683 463.295 240.1C464.929 239.633 466.504 239.808 468.02 240.625C469.654 241.442 470.879 242.667 471.695 244.3C473.445 247.683 476.012 250.717 479.395 253.4C482.779 256.083 486.804 258.183 491.47 259.7C496.137 261.1 501.27 261.8 506.87 261.8C513.054 261.8 518.537 260.808 523.32 258.825C528.104 256.725 531.837 253.75 534.52 249.9C537.32 245.933 538.72 241.15 538.72 235.55C538.72 228.433 536.095 222.308 530.845 217.175C525.595 212.042 517.37 208.775 506.17 207.375C492.52 205.742 481.845 201.542 474.145 194.775C466.445 187.892 462.595 179.492 462.595 169.575C462.595 162.458 464.462 156.275 468.195 151.025C472.045 145.775 477.295 141.75 483.945 138.95C490.595 136.033 498.237 134.575 506.87 134.575C513.287 134.575 519.12 135.625 524.37 137.725C529.62 139.708 534.17 142.392 538.02 145.775C541.987 149.042 545.195 152.658 547.645 156.625C548.812 158.492 549.162 160.3 548.695 162.05C548.345 163.8 547.354 165.142 545.72 166.075C543.97 166.892 542.162 167.008 540.295 166.425C538.545 165.842 537.204 164.733 536.27 163.1C534.52 160.417 532.304 157.908 529.62 155.575C527.054 153.125 523.904 151.2 520.17 149.8C516.437 148.4 511.945 147.642 506.695 147.525C497.479 147.525 490.07 149.508 484.47 153.475C478.87 157.325 476.07 162.983 476.07 170.45C476.07 174.417 477.12 178.092 479.22 181.475C481.32 184.742 484.762 187.6 489.545 190.05C494.445 192.383 500.979 194.133 509.145 195.3C523.729 197.4 534.52 201.892 541.52 208.775C548.637 215.542 552.195 224.408 552.195 235.375C552.195 241.675 551.029 247.275 548.695 252.175C546.479 257.075 543.27 261.217 539.07 264.6C534.987 267.867 530.145 270.375 524.545 272.125C519.062 273.875 513.17 274.75 506.87 274.75ZM599.639 273C594.973 273 590.773 271.717 587.039 269.15C583.423 266.583 580.564 263.025 578.464 258.475C576.481 253.925 575.489 248.675 575.489 242.725V142.975C575.489 140.992 576.073 139.417 577.239 138.25C578.523 136.967 580.156 136.325 582.139 136.325C584.123 136.325 585.698 136.967 586.864 138.25C588.148 139.417 588.789 140.992 588.789 142.975V242.725C588.789 247.742 589.781 251.825 591.764 254.975C593.864 258.125 596.489 259.7 599.639 259.7H604.014C605.764 259.7 607.164 260.342 608.214 261.625C609.264 262.792 609.789 264.367 609.789 266.35C609.789 268.333 609.031 269.967 607.514 271.25C606.114 272.417 604.248 273 601.914 273H599.639ZM666.656 273.875C657.323 273.875 648.981 271.775 641.631 267.575C634.281 263.375 628.506 257.6 624.306 250.25C620.106 242.9 618.006 234.558 618.006 225.225C618.006 215.775 620.106 207.375 624.306 200.025C628.506 192.675 634.281 186.9 641.631 182.7C648.981 178.5 657.323 176.4 666.656 176.4C675.989 176.4 684.273 178.5 691.506 182.7C698.856 186.9 704.631 192.675 708.831 200.025C713.031 207.375 715.189 215.775 715.306 225.225C715.306 234.558 713.148 242.9 708.831 250.25C704.631 257.6 698.856 263.375 691.506 267.575C684.273 271.775 675.989 273.875 666.656 273.875ZM666.656 261.625C673.423 261.625 679.489 260.05 684.856 256.9C690.223 253.75 694.423 249.433 697.456 243.95C700.489 238.467 702.006 232.225 702.006 225.225C702.006 218.225 700.489 211.983 697.456 206.5C694.423 200.9 690.223 196.525 684.856 193.375C679.489 190.225 673.423 188.65 666.656 188.65C659.889 188.65 653.823 190.225 648.456 193.375C643.089 196.525 638.831 200.9 635.681 206.5C632.648 211.983 631.131 218.225 631.131 225.225C631.131 232.225 632.648 238.467 635.681 243.95C638.831 249.433 643.089 253.75 648.456 256.9C653.823 260.05 659.889 261.625 666.656 261.625ZM750.089 273C748.222 273 746.589 272.358 745.189 271.075C743.905 269.792 743.264 268.158 743.264 266.175V143.15C743.264 141.283 743.905 139.708 745.189 138.425C746.589 137.025 748.222 136.325 750.089 136.325C751.955 136.325 753.53 137.025 754.814 138.425C756.214 139.708 756.914 141.283 756.914 143.15V260.05H825.339C827.205 260.05 828.78 260.692 830.064 261.975C831.464 263.142 832.164 264.658 832.164 266.525C832.164 268.392 831.464 269.967 830.064 271.25C828.78 272.417 827.205 273 825.339 273H750.089ZM861.881 273C859.781 273 858.089 272.417 856.806 271.25C855.639 269.967 855.056 268.275 855.056 266.175V184.1C855.056 182 855.639 180.367 856.806 179.2C858.089 177.917 859.781 177.275 861.881 177.275C863.864 177.275 865.439 177.917 866.606 179.2C867.889 180.367 868.531 182 868.531 184.1V266.175C868.531 268.275 867.889 269.967 866.606 271.25C865.439 272.417 863.864 273 861.881 273ZM861.706 159.075C859.139 159.075 856.923 158.142 855.056 156.275C853.189 154.408 852.256 152.133 852.256 149.45C852.256 146.533 853.189 144.258 855.056 142.625C857.039 140.875 859.314 140 861.881 140C864.331 140 866.489 140.875 868.356 142.625C870.339 144.258 871.331 146.533 871.331 149.45C871.331 152.133 870.398 154.408 868.531 156.275C866.664 158.142 864.389 159.075 861.706 159.075ZM951.317 273.875C942.217 273.875 933.992 271.775 926.642 267.575C919.409 263.375 913.634 257.658 909.317 250.425C905.117 243.075 902.959 234.85 902.842 225.75V143.15C902.842 141.05 903.425 139.417 904.592 138.25C905.875 136.967 907.567 136.325 909.667 136.325C911.65 136.325 913.225 136.967 914.392 138.25C915.675 139.417 916.317 141.05 916.317 143.15V194.6C920.167 189.117 925.242 184.742 931.542 181.475C937.959 178.092 945.075 176.4 952.892 176.4C961.875 176.4 969.925 178.558 977.042 182.875C984.159 187.075 989.759 192.85 993.842 200.2C998.042 207.55 1000.14 215.833 1000.14 225.05C1000.14 234.383 997.984 242.725 993.667 250.075C989.467 257.425 983.692 263.258 976.342 267.575C968.992 271.775 960.65 273.875 951.317 273.875ZM951.317 261.625C958.084 261.625 964.15 260.05 969.517 256.9C974.884 253.633 979.084 249.258 982.117 243.775C985.267 238.292 986.842 232.05 986.842 225.05C986.842 218.167 985.267 211.983 982.117 206.5C979.084 200.9 974.884 196.525 969.517 193.375C964.15 190.225 958.084 188.65 951.317 188.65C944.667 188.65 938.659 190.225 933.292 193.375C927.925 196.525 923.725 200.9 920.692 206.5C917.659 211.983 916.142 218.167 916.142 225.05C916.142 232.05 917.659 238.292 920.692 243.775C923.725 249.258 927.925 253.633 933.292 256.9C938.659 260.05 944.667 261.625 951.317 261.625Z" fill="#161616"/>
</svg>
